<svg width="29" height="29" viewBox="0 0 29 29" fill="none" xmlns="http://www.w3.org/2000/svg">
<path d="M14.2856 0.9C13.5854 0.9 12.9161 0.960222 12.25 1.05184V0.99473L12.1184 1.0386L11.9254 1.10293C5.44187 2.21526 0.471289 7.89363 0.471289 14.7143C0.471289 22.0991 6.30414 28.1764 13.6182 28.5271V28.5286H13.6516H13.9519H13.9525H13.9531H13.9537H13.9542H13.9548H13.9554H13.956H13.9566H13.9572H13.9578H13.9583H13.9589H13.9595H13.9601H13.9607H13.9613H13.9619H13.9625H13.963H13.9636H13.9642H13.9648H13.9654H13.966H13.9666H13.9671H13.9677H13.9683H13.9689H13.9695H13.9701H13.9707H13.9713H13.9718H13.9724H13.973H13.9736H13.9742H13.9748H13.9754H13.976H13.9765H13.9771H13.9777H13.9783H13.9789H13.9795H13.9801H13.9807H13.9813H13.9818H13.9824H13.983H13.9836H13.9842H13.9848H13.9854H13.986H13.9866H13.9871H13.9877H13.9883H13.9889H13.9895H13.9901H13.9907H13.9913H13.9919H13.9924H13.993H13.9936H13.9942H13.9948H13.9954H13.996H13.9966H13.9972H13.9978H13.9984H13.9989H13.9995H14.0001H14.0007H14.0013H14.0019H14.0025H14.0031H14.0037H14.0043H14.0049H14.0055H14.0061H14.0066H14.0072H14.0078H14.0084H14.009H14.0096H14.0102H14.0108H14.0114H14.012H14.0126H14.0132H14.0138H14.0144H14.015H14.0156H14.0161H14.0167H14.0173H14.0179H14.0185H14.0191H14.0197H14.0203H14.0209H14.0215H14.0221H14.0227H14.0233H14.0239H14.0245H14.0251H14.0257H14.0263H14.0269H14.0275H14.0281H14.0287H14.0293H14.0299H14.0305H14.0311H14.0317H14.0323H14.0329H14.0335H14.0341H14.0347H14.0353H14.0359H14.0365H14.0371H14.0377H14.0383H14.0389H14.0395H14.0401H14.0407H14.0413H14.0419H14.0425H14.0431H14.0437H14.0443H14.0449H14.0455H14.0462H14.0468H14.0474H14.048H14.0486H14.0492H14.0498H14.0504H14.051H14.0516H14.0522H14.0528H14.0534H14.054H14.0547H14.0553H14.0559H14.0565H14.0571H14.0577H14.0583H14.0589H14.0595H14.0601H14.0608H14.0614H14.062H14.0626H14.0632H14.0638H14.0644H14.065H14.0657H14.0663H14.0669H14.0675H14.0681H14.0687H14.0693H14.07H14.0706H14.0712H14.0718H14.0724H14.073H14.0737H14.0743H14.0749H14.0755H14.0761H14.0768H14.0774H14.078H14.0786H14.0792H14.0799H14.0805H14.0811H14.0817H14.0823H14.083H14.0836H14.0842H14.0848H14.0855H14.0861H14.0867H14.0873H14.0879H14.0886H14.0892H14.0898H14.0905H14.0911H14.0917H14.0923H14.093H14.0936H14.0942H14.0948H14.0955H14.0961H14.0967H14.0974H14.098H14.0986H14.0993H14.0999H14.1005H14.1011H14.1018H14.1024H14.103H14.1037H14.1043H14.105H14.1056H14.1062H14.1069H14.1075H14.1081H14.1088H14.1094H14.11H14.1107H14.1113H14.112H14.1126H14.1132H14.1139H14.1145H14.1152H14.1158H14.1164H14.1171H14.1177H14.1184H14.119H14.1197H14.1203H14.1209H14.1216H14.1222H14.1229H14.1235H14.1242H14.1248H14.1255H14.1261H14.1268H14.1274H14.1281H14.1287H14.1294H14.13H14.1307H14.1313H14.132H14.1326H14.1333H14.1339H14.1346H14.1352H14.1359H14.1365H14.1372H14.1378H14.1385H14.1392H14.1398H14.1405H14.1411H14.1418H14.1424H14.1431H14.1438H14.1444H14.1451H14.1457H14.1464H14.1471H14.1477H14.1484H14.1491H14.1497H14.1504H14.1511H14.1517H14.1524H14.1531H14.1537H14.1544H14.1551H14.1557H14.1564H14.1571H14.1577H14.1584H14.1591H14.1597H14.1604H14.1611H14.1618H14.1624H14.1631H14.1638H14.1645H14.1651H14.1658H14.1665H14.1672H14.1678H14.1685H14.1692H14.1699H14.1706H14.1712H14.1719H14.1726H14.1733H14.174H14.1747H14.1753H14.176H14.1767H14.1774H14.1781H14.1788H14.1794H14.1801H14.1808H14.1815H14.1822H14.1829H14.1836H14.1843H14.185H14.1857H14.1863H14.187H14.1877H14.1884H14.1891H14.1898H14.1905H14.1912H14.1919H14.1926H14.1933H14.194H14.1947H14.1954H14.1961H14.1968H14.1975H14.1982H14.1989H14.1996H14.2003H14.201H14.2017H14.2024H14.2031H14.2038H14.2045H14.2053H14.206H14.2067H14.2074H14.2081H14.2088H14.2095H14.2102H14.2109H14.2117H14.2124H14.2131H14.2138H14.2145H14.2152H14.2159H14.2167H14.2174H14.2181H14.2188H14.2195H14.2203H14.221H14.2217H14.2224H14.2232H14.2239H14.2246H14.2253H14.2261H14.2268H14.2275H14.2282H14.229H14.2297H14.2304H14.2312H14.2319H14.2326H14.2333H14.2341H14.2348H14.2356H14.2363H14.237H14.2378H14.2385H14.2392H14.24H14.2407H14.2415H14.2422H14.2429H14.2437H14.2444H14.2452H14.2459H14.2466H14.2474H14.2481H14.2489H14.2496H14.2504H14.2511H14.2519H14.2526H14.2534H14.2541H14.2549H14.2556H14.2564H14.2571H14.2579H14.2587H14.2594H14.2602H14.2609H14.2617H14.2625H14.2632H14.264H14.2647H14.2655H14.2663H14.267H14.2678H14.2686H14.2693H14.2701H14.2709H14.2716H14.2724H14.2732H14.2739H14.2747H14.2755H14.2762H14.277H14.2778H14.2786H14.2793H14.2801H14.2809H14.2817H14.2825H14.2832H14.284H14.2848H14.2856H14.2862H14.2867H14.2873H14.2879H14.2885H14.2891H14.2897H14.2903H14.2909H14.2914H14.292H14.2926H14.2932H14.2938H14.2944H14.295H14.2955H14.2961H14.2967H14.2973H14.2979H14.2985H14.2991H14.2997H14.3002H14.3008H14.3014H14.302H14.3026H14.3032H14.3038H14.3044H14.3049H14.3055H14.3061H14.3067H14.3073H14.3079H14.3085H14.3091H14.3096H14.3102H14.3108H14.3114H14.312H14.3126H14.3132H14.3138H14.3143H14.3149H14.3155H14.3161H14.3167H14.3173H14.3179H14.3185H14.3191H14.3196H14.3202H14.3208H14.3214H14.322H14.3226H14.3232H14.3238H14.3244H14.3249H14.3255H14.3261H14.3267H14.3273H14.3279H14.3285H14.3291H14.3297H14.3303H14.3309H14.3314H14.332H14.3326H14.3332H14.3338H14.3344H14.335H14.3356H14.3362H14.3368H14.3374H14.338H14.3385H14.3391H14.3397H14.3403H14.3409H14.3415H14.3421H14.3427H14.3433H14.3439H14.3445H14.3451H14.3457H14.3463H14.3469H14.3475H14.348H14.3486H14.3492H14.3498H14.3504H14.351H14.3516H14.3522H14.3528H14.3534H14.354H14.3546H14.3552H14.3558H14.3564H14.357H14.3576H14.3582H14.3588H14.3594H14.36H14.3606H14.3612H14.3618H14.3624H14.363H14.3636H14.3642H14.3648H14.3654H14.366H14.3666H14.3672H14.3678H14.3684H14.369H14.3696H14.3702H14.3708H14.3714H14.372H14.3726H14.3732H14.3738H14.3744H14.375H14.3756H14.3762H14.3768H14.3774H14.378H14.3786H14.3792H14.3798H14.3804H14.381H14.3817H14.3823H14.3829H14.3835H14.3841H14.3847H14.3853H14.3859H14.3865H14.3871H14.3877H14.3883H14.3889H14.3896H14.3902H14.3908H14.3914H14.392H14.3926H14.3932H14.3938H14.3944H14.395H14.3957H14.3963H14.3969H14.3975H14.3981H14.3987H14.3993H14.4H14.4006H14.4012H14.4018H14.4024H14.403H14.4036H14.4043H14.4049H14.4055H14.4061H14.4067H14.4073H14.408H14.4086H14.4092H14.4098H14.4104H14.4111H14.4117H14.4123H14.4129H14.4135H14.4142H14.4148H14.4154H14.416H14.4166H14.4173H14.4179H14.4185H14.4191H14.4198H14.4204H14.421H14.4216H14.4223H14.4229H14.4235H14.4241H14.4248H14.4254H14.426H14.4266H14.4273H14.4279H14.4285H14.4292H14.4298H14.4304H14.431H14.4317H14.4323H14.4329H14.4336H14.4342H14.4348H14.4355H14.4361H14.4367H14.4374H14.438H14.4386H14.4393H14.4399H14.4405H14.4412H14.4418H14.4424H14.4431H14.4437H14.4444H14.445H14.4456H14.4463H14.4469H14.4476H14.4482H14.4488H14.4495H14.4501H14.4508H14.4514H14.452H14.4527H14.4533H14.454H14.4546H14.4553H14.4559H14.4566H14.4572H14.4578H14.4585H14.4591H14.4598H14.4604H14.4611H14.4617H14.4624H14.463H14.4637H14.4643H14.465H14.4656H14.4663H14.4669H14.4676H14.4683H14.4689H14.4696H14.4702H14.4709H14.4715H14.4722H14.4728H14.4735H14.4742H14.4748H14.4755H14.4761H14.4768H14.4774H14.4781H14.4788H14.4794H14.4801H14.4808H14.4814H14.4821H14.4827H14.4834H14.4841H14.4847H14.4854H14.4861H14.4867H14.4874H14.4881H14.4887H14.4894H14.4901H14.4907H14.4914H14.4921H14.4928H14.4934H14.4941H14.4948H14.4954H14.4961H14.4968H14.4975H14.4981H14.4988H14.4995H14.5002H14.5008H14.5015H14.5022H14.5029H14.5036H14.5042H14.5049H14.5056H14.5063H14.507H14.5076H14.5083H14.509H14.5097H14.5104H14.5111H14.5118H14.5124H14.5131H14.5138H14.5145H14.5152H14.5159H14.5166H14.5173H14.518H14.5186H14.5193H14.52H14.5207H14.5214H14.5221H14.5228H14.5235H14.5242H14.5249H14.5256H14.5263H14.527H14.5277H14.5284H14.5291H14.5298H14.5305H14.5312H14.5319H14.5326H14.5333H14.534H14.5347H14.5354H14.5361H14.5368H14.5375H14.5382H14.5389H14.5396H14.5404H14.5411H14.5418H14.5425H14.5432H14.5439H14.5446H14.5453H14.546H14.5468H14.5475H14.5482H14.5489H14.5496H14.5503H14.5511H14.5518H14.5525H14.5532H14.5539H14.5547H14.5554H14.5561H14.5568H14.5576H14.5583H14.559H14.5597H14.5605H14.5612H14.5619H14.5626H14.5634H14.5641H14.5648H14.5656H14.5663H14.567H14.5678H14.5685H14.5692H14.57H14.5707H14.5714H14.5722H14.5729H14.5737H14.5744H14.5751H14.5759H14.5766H14.5774H14.5781H14.5788H14.5796H14.5803H14.5811H14.5818H14.5826H14.5833H14.5841H14.5848H14.5856H14.5863H14.5871H14.5878H14.5886H14.5893H14.5901H14.5908H14.5916H14.5923H14.5931H14.5939H14.5946H14.5954H14.5961H14.5969H14.5977H14.5984H14.5992H14.5999H14.6007H14.6015H14.6022H14.603H14.6038H14.6045H14.6053H14.6061H14.6068H14.6076H14.6084H14.6092H14.6099H14.6107H14.6115H14.6122H14.613H14.6138H14.6146H14.6154H14.6161H14.6169H14.6177H14.6185H14.6193H14.6273C14.7846 28.5286 14.9575 28.5286 15.1011 28.4945C22.3573 28.0866 28.0999 22.0385 28.0999 14.7143C28.0999 13.5732 27.9658 12.4316 27.6972 11.3564C27.6461 11.0769 27.5568 10.7954 27.4742 10.5351C27.4464 10.4477 27.4194 10.3627 27.3949 10.281L27.395 10.2809L27.3936 10.277C25.5117 4.83283 20.3696 0.9 14.2856 0.9ZM14.2522 1.70063L14.2529 1.70062C18.6805 1.66922 22.5419 3.81121 24.9061 7.139C24.6987 6.98715 24.4769 6.84392 24.2453 6.7191C22.7292 5.80987 20.8133 5.20621 18.501 4.97152C15.6585 4.62755 13.5806 2.71186 12.722 1.77861C13.2213 1.72663 13.7236 1.70063 14.2522 1.70063ZM3.87548 17.0948L3.8755 17.095C4.17887 19.7073 5.55114 22.1121 7.1843 23.8628C8.00129 24.7386 8.88576 25.4531 9.73841 25.9493C10.5894 26.4445 11.4164 26.7267 12.1166 26.7267H12.2166V26.6267V26.0594V25.9594H12.1166C11.5418 25.9594 10.826 25.7107 10.0574 25.252C9.29077 24.7945 8.48038 24.1334 7.71823 23.3215L7.71821 23.3215C6.68954 22.2265 4.93827 19.977 4.60811 17.0056L4.60808 17.0053C4.38006 15.0102 4.7913 13.1104 5.3776 11.5178C5.13781 14.1832 5.83871 17.1287 7.42797 19.5737C9.48093 22.7373 12.615 24.491 16.2543 24.491H16.3543V24.391V23.8238V23.7238H16.2543C12.9202 23.7238 10.0143 22.1077 8.06283 19.1311C6.00851 15.95 5.48414 11.8482 6.8024 8.88212L6.80271 8.88141C7.92867 6.29475 9.19318 4.60156 10.1877 3.49437C10.1165 3.84603 10.0813 4.24106 10.0813 4.70386C10.0813 5.76004 10.2749 6.75239 10.7241 7.80437C10.1835 8.18179 9.14699 9.11302 9.14699 11.0104C9.14699 12.2512 9.44667 13.193 9.67962 13.925L9.68559 13.9438L9.68555 13.9438L9.6865 13.9465C9.92147 14.6178 10.0773 15.1266 9.98291 15.6302L9.98273 15.6301L9.98197 15.6362C9.91773 16.1501 9.7348 16.4371 9.57337 16.5948C9.492 16.6743 9.41444 16.7225 9.35693 16.7506C9.32812 16.7647 9.30457 16.7735 9.28842 16.7787C9.28144 16.7809 9.27616 16.7824 9.27272 16.7832H9.18036V16.8832V17.4171V17.5018L9.26392 17.5157C9.35861 17.5315 9.53462 17.5715 9.70965 17.6431C9.88779 17.716 10.0483 17.815 10.1315 17.9397C10.2107 18.0585 10.2145 18.211 10.1912 18.347C10.1798 18.4134 10.1626 18.4716 10.1483 18.5133C10.1411 18.534 10.1348 18.5504 10.1303 18.5613L10.1252 18.5734L10.124 18.5761L10.1239 18.5764L10.1238 18.5765L10.1238 18.5765L10.1238 18.5766L10.1238 18.5766L10.1086 18.6095L10.1182 18.6447L10.2183 19.0117L10.2287 19.0499L10.2624 19.0706L10.6434 19.305L10.6156 19.6103L10.6124 19.6455L10.632 19.6749L10.8322 19.9752L10.8519 20.0048L10.886 20.0153L11.2431 20.1252C11.2223 20.4733 11.284 20.9637 11.7123 21.3919C12.0634 21.7431 12.5555 21.9884 13.1844 21.9884C13.9692 21.9884 14.9994 21.5883 16.3344 20.5308C16.5554 20.866 16.8884 21.6701 16.8884 23.4901C16.8884 25.9228 14.9392 27.3887 14.4886 27.6946H14.4883H14.4879H14.4874H14.487H14.4866H14.4861H14.4857H14.4852H14.4848H14.4844H14.4839H14.4835H14.483H14.4826H14.4821H14.4817H14.4812H14.4808H14.4803H14.4799H14.4794H14.479H14.4785H14.4781H14.4776H14.4772H14.4767H14.4763H14.4758H14.4754H14.4749H14.4745H14.474H14.4735H14.4731H14.4726H14.4722H14.4717H14.4713H14.4708H14.4703H14.4699H14.4694H14.469H14.4685H14.4681H14.4676H14.4671H14.4667H14.4662H14.4657H14.4653H14.4648H14.4644H14.4639H14.4634H14.463H14.4625H14.462H14.4616H14.4611H14.4606H14.4602H14.4597H14.4592H14.4588H14.4583H14.4578H14.4573H14.4569H14.4564H14.4559H14.4555H14.455H14.4545H14.4541H14.4536H14.4531H14.4526H14.4522H14.4517H14.4512H14.4507H14.4503H14.4498H14.4493H14.4488H14.4484H14.4479H14.4474H14.4469H14.4465H14.446H14.4455H14.445H14.4446H14.4441H14.4436H14.4431H14.4426H14.4422H14.4417H14.4412H14.4407H14.4403H14.4398H14.4393H14.4388H14.4383H14.4379H14.4374H14.4369H14.4364H14.4359H14.4354H14.435H14.4345H14.434H14.4335H14.433H14.4326H14.4321H14.4316H14.4311H14.4306H14.4301H14.4296H14.4292H14.4287H14.4282H14.4277H14.4272H14.4267H14.4263H14.4258H14.4253H14.4248H14.4243H14.4238H14.4233H14.4229H14.4224H14.4219H14.4214H14.4209H14.4204H14.4199H14.4194H14.419H14.4185H14.418H14.4175H14.417H14.4165H14.416H14.4156H14.4151H14.4146H14.4141H14.4136H14.4131H14.4126H14.4121H14.4116H14.4112H14.4107H14.4102H14.4097H14.4092H14.4087H14.4082H14.4077H14.4073H14.4068H14.4063H14.4058H14.4053H14.4048H14.4043H14.4038H14.4033H14.4029H14.4024H14.4019H14.4014H14.4009H14.4004H14.3999H14.3994H14.3989H14.3985H14.398H14.3975H14.397H14.3965H14.396H14.3955H14.395H14.3945H14.3941H14.3936H14.3931H14.3926H14.3921H14.3916H14.3911H14.3906H14.3902H14.3897H14.3892H14.3887H14.3882H14.3877H14.3872H14.3867H14.3863H14.3858H14.3853H14.3848H14.3843H14.3838H14.3833H14.3828H14.3824H14.3819H14.3814H14.3809H14.3804H14.3799H14.3794H14.379H14.3785H14.378H14.3775H14.377H14.3765H14.376H14.3756H14.3751H14.3746H14.3741H14.3736H14.3731H14.3727H14.3722H14.3717H14.3712H14.3707H14.3702H14.3698H14.3693H14.3688H14.3683H14.3678H14.3674H14.3669H14.3664H14.3659H14.3654H14.365H14.3645H14.364H14.3635H14.363H14.3626H14.3621H14.3616H14.3611H14.3606H14.3602H14.3597H14.3592H14.3587H14.3583H14.3578H14.3573H14.3568H14.3564H14.3559H14.3554H14.3549H14.3545H14.354H14.3535H14.353H14.3526H14.3521H14.3516H14.3511H14.3507H14.3502H14.3497H14.3493H14.3488H14.3483H14.3478H14.3474H14.3469H14.3464H14.346H14.3455H14.345H14.3446H14.3441H14.3436H14.3432H14.3427H14.3422H14.3418H14.3413H14.3408H14.3404H14.3399H14.3394H14.339H14.3385H14.3381H14.3376H14.3371H14.3367H14.3362H14.3358H14.3353H14.3348H14.3344H14.3339H14.3335H14.333H14.3325H14.3321H14.3316H14.3312H14.3307H14.3303H14.3298H14.3294H14.3289H14.3285H14.328H14.3275H14.3271H14.3266H14.3262H14.3257H14.3253H14.3248H14.3244H14.3239H14.3235H14.3231H14.3226H14.3222H14.3217H14.3213H14.3208H14.3204H14.3199H14.3195H14.319H14.3186H14.3182H14.3177H14.3173H14.3168H14.3164H14.316H14.3155H14.3151H14.3146H14.3142H14.3138H14.3133H14.3129H14.3125H14.312H14.3116H14.3112H14.3107H14.3103H14.3099H14.3094H14.309H14.3086H14.3082H14.3077H14.3073H14.3069H14.3064H14.306H14.3056H14.3052H14.3047H14.3043H14.3039H14.3035H14.3031H14.3026H14.3022H14.3018H14.3014H14.301H14.3005H14.3001H14.2997H14.2993H14.2989H14.2985H14.298H14.2976H14.2972H14.2968H14.2964H14.296H14.2956H14.2952H14.2948H14.2944H14.294H14.2935H14.2931H14.2927H14.2923H14.2919H14.2915H14.2911H14.2907H14.2903H14.2899H14.2895H14.2891H14.2887H14.2883H14.2879H14.2875H14.2871H14.2868H14.2864H14.286L14.2856 27.6946L14.2847 27.6946C7.0999 27.7608 1.23855 21.9001 1.23855 14.7143C1.23855 8.87874 5.06813 3.92199 10.374 2.2587C9.38205 3.16855 8.04319 4.74737 6.75902 7.25408C6.6093 7.46046 5.75572 8.66174 5.0048 10.4291C4.24611 12.2147 3.58917 14.5854 3.87548 17.0948ZM17.1653 18.9881L17.0963 18.9053L17.0189 18.9804C15.9048 20.0612 14.9235 20.7595 14.1118 21.0736C13.3024 21.3868 12.6827 21.312 12.2541 20.8834C12.0772 20.7065 12.024 20.4919 12.0164 20.3117C12.0125 20.2217 12.0202 20.1416 12.0289 20.0817C12.0333 20.0519 12.0379 20.0271 12.0416 20.0083L12.0464 19.9836C12.0469 19.9808 12.0498 19.9664 12.0498 19.9531V19.9276L12.0376 19.9052L11.8374 19.5381L11.8154 19.4979L11.7706 19.4882L11.3918 19.4071L11.4152 19.1967L11.4185 19.1673L11.4053 19.1409L11.2718 18.8739L11.2594 18.8492L11.236 18.8343L10.9289 18.6389C10.9904 18.3618 11.0358 17.9349 10.7996 17.5636L10.7997 17.5635L10.7966 17.5592C10.6475 17.3506 10.426 17.1684 10.1915 17.0517C10.4356 16.7939 10.6569 16.397 10.747 15.7993C10.8774 15.1429 10.6681 14.5189 10.451 13.8719C10.4372 13.8308 10.4234 13.7896 10.4096 13.7484L10.4078 13.7427C10.1751 13.0114 9.91425 12.1914 9.91425 11.0438C9.91425 9.59329 10.6433 8.85139 11.0807 8.52277C12.0013 10.2479 13.6699 12.2039 16.4841 14.9855C17.8389 16.3403 18.7966 18.0581 19.1929 19.94C19.5567 21.6932 19.4561 23.4072 18.8649 24.8196L18.8645 24.8204C18.259 26.3039 17.2114 27.2764 15.8514 27.6224C16.6601 26.824 17.6223 25.4527 17.6223 23.5568C17.6223 21.5267 17.2028 20.5597 16.8891 20.1023C17.0967 19.9194 17.2819 19.7343 17.4915 19.5247L17.4929 19.5233L17.5575 19.4587L17.499 19.3885L17.1653 18.9881ZM18.1446 27.1996C18.7304 26.653 19.2157 25.9503 19.5822 25.1327L19.5823 25.1327L19.5834 25.1299C20.2261 23.5739 20.36 21.6841 19.9222 19.7977C19.4844 17.7774 18.4742 15.9251 16.9922 14.4766C12.2182 9.63574 10.8486 7.49405 10.8486 4.73723C10.8486 3.33252 11.2371 2.59157 11.5819 2.21073C11.6164 2.18725 11.6471 2.1639 11.6741 2.14295C11.8803 3.36046 12.9426 5.93319 17.7999 9.2246L17.8001 9.22474C19.3258 10.2529 21.2012 11.9485 22.1588 14.4538C23.1148 16.9552 23.1618 20.2793 21.0033 24.5798L20.9571 24.6717L21.0504 24.7152L21.5509 24.9488L21.6395 24.9902L21.6828 24.9025C23.124 21.9867 23.7307 19.0643 23.4277 16.5047C23.0567 13.301 21.3021 10.6407 18.2455 8.59173C14.4841 6.04455 13.1344 3.98048 12.654 2.75498C13.7538 3.84345 15.7501 5.40064 18.4442 5.7374L18.4449 5.73748C23.7886 6.3681 25.8862 8.55208 26.671 10.6103C27.1009 11.9007 27.3326 13.3241 27.3326 14.7477C27.3326 20.5785 23.4774 25.5327 18.1446 27.1996ZM13.785 13.2127V13.1127H13.685H13.1177H13.0177L13.0177 13.2123V13.2124V13.2125L13.0177 13.2126V13.2127L13.0176 13.2141L13.0171 13.2244C13.0163 13.2341 13.0148 13.249 13.0117 13.2679C13.0055 13.3059 12.9928 13.3595 12.9672 13.4198C12.9167 13.5389 12.8151 13.686 12.6058 13.7906C12.3642 13.9114 12.1039 13.913 11.8983 13.8814C11.7962 13.8656 11.7096 13.842 11.6489 13.8225C11.6186 13.8127 11.5949 13.804 11.5791 13.7978L11.5614 13.7907L11.5574 13.789L11.5566 13.7887L11.5566 13.7887L11.5566 13.7887L11.5565 13.7887L11.5565 13.7886L11.4669 13.7488L11.4254 13.8378L11.1918 14.3383L11.1254 14.4806H11.2711C11.2725 14.4811 11.2741 14.4816 11.2761 14.4823C11.2844 14.4852 11.2943 14.4888 11.3068 14.4933C11.3129 14.4955 11.3197 14.498 11.3272 14.5007C11.3714 14.5167 11.4333 14.5384 11.5094 14.5602C11.6616 14.6037 11.8713 14.6474 12.1166 14.6474C12.3597 14.6474 12.6435 14.6127 12.9288 14.47C13.7825 14.0432 13.785 13.2567 13.785 13.2127Z" fill="#DF9494" stroke="#DF9494" stroke-width="0.2"/>
</svg>
