<svg width="36" height="47" viewBox="0 0 36 47" fill="none" xmlns="http://www.w3.org/2000/svg">
<path d="M23.6233 32.4711C23.8164 31.6379 23.819 30.7718 23.6308 29.9374C23.4425 29.103 23.0684 28.3219 22.5362 27.6523C22.004 26.9826 21.3276 26.4417 20.5573 26.07C19.7869 25.6982 18.9426 25.5051 18.0873 25.5051C17.2319 25.5051 16.3876 25.6982 15.6173 26.07C14.847 26.4417 14.1705 26.9826 13.6383 27.6523C13.1061 28.3219 12.732 29.103 12.5438 29.9374C12.3555 30.7718 12.3581 31.6379 12.5512 32.4711L7.74157 37.2733C7.64476 37.3695 7.57595 37.4903 7.54249 37.6226C7.50903 37.7549 7.51219 37.8939 7.55163 38.0245C7.59106 38.1552 7.66529 38.2727 7.76637 38.3645C7.86744 38.4562 7.99156 38.5187 8.12544 38.5453L11.1362 39.14L11.7308 42.1507C11.7574 42.2846 11.82 42.4087 11.9117 42.5098C12.0034 42.6108 12.1209 42.6851 12.2516 42.7245C12.3823 42.764 12.5212 42.7671 12.6535 42.7336C12.7859 42.7002 12.9066 42.6314 13.0029 42.5346L18.0835 37.4314L23.1867 42.5195C23.2822 42.6142 23.4012 42.6817 23.5315 42.7148C23.6618 42.7479 23.7986 42.7455 23.9277 42.7079C24.0568 42.6702 24.1734 42.5987 24.2655 42.5007C24.3576 42.4027 24.4217 42.2819 24.4512 42.1507L25.0459 39.14L28.0566 38.5453C28.1905 38.5187 28.3146 38.4562 28.4157 38.3645C28.5168 38.2727 28.591 38.1552 28.6304 38.0245C28.6699 37.8939 28.673 37.7549 28.6396 37.6226C28.6061 37.4903 28.5373 37.3695 28.4405 37.2733L23.6233 32.4711ZM18.0835 27.0292C18.9079 27.0307 19.7134 27.2765 20.3981 27.7356C21.0829 28.1947 21.6162 28.8465 21.9306 29.6086C22.2451 30.3706 22.3266 31.2088 22.1648 32.0172C22.0031 32.8256 21.6053 33.5679 21.0219 34.1503C20.4384 34.7327 19.6954 35.1291 18.8867 35.2894C18.078 35.4497 17.24 35.3667 16.4785 35.0508C15.717 34.735 15.0662 34.2005 14.6083 33.515C14.1505 32.8294 13.9061 32.0235 13.9061 31.1991C13.9081 30.0925 14.3491 29.0319 15.1323 28.2501C15.9155 27.4683 16.9769 27.0292 18.0835 27.0292ZM12.9125 40.4647L12.491 38.3873C12.461 38.2416 12.3885 38.1081 12.2827 38.0036C12.1768 37.8991 12.0424 37.8283 11.8964 37.8002L9.80393 37.3486L13.1534 34.0066C13.5323 34.67 14.0407 35.2504 14.6485 35.7133C15.2562 36.1762 15.9508 36.5122 16.691 36.7012L12.9125 40.4647ZM24.2631 37.7701C24.117 37.7982 23.9826 37.869 23.8768 37.9735C23.771 38.078 23.6985 38.2115 23.6684 38.3572L23.2469 40.4647L19.4835 36.7012C20.2237 36.5122 20.9183 36.1762 21.5261 35.7133C22.1338 35.2504 22.6422 34.67 23.0211 34.0066L26.3631 37.3486L24.2631 37.7701Z" fill="#DF9494"/>
<path d="M30.8791 0H5.28768C4.04601 0 2.85519 0.493252 1.9772 1.37124C1.09921 2.24924 0.605957 3.44005 0.605957 4.68172V41.9849C0.605957 43.2266 1.09921 44.4174 1.9772 45.2954C2.85519 46.1734 4.04601 46.6667 5.28768 46.6667H30.8791C32.1207 46.6667 33.3116 46.1734 34.1895 45.2954C35.0675 44.4174 35.5608 43.2266 35.5608 41.9849V4.68172C35.5608 3.44005 35.0675 2.24924 34.1895 1.37124C33.3116 0.493252 32.1207 0 30.8791 0ZM34.0554 41.9849C34.0554 42.8274 33.7208 43.6353 33.1251 44.231C32.5294 44.8266 31.7215 45.1613 30.8791 45.1613H5.28768C4.44526 45.1613 3.63734 44.8266 3.04166 44.231C2.44598 43.6353 2.11133 42.8274 2.11133 41.9849V4.68172C2.11133 3.8393 2.44598 3.03139 3.04166 2.43571C3.63734 1.84003 4.44526 1.50538 5.28768 1.50538H30.8791C31.7215 1.50538 32.5294 1.84003 33.1251 2.43571C33.7208 3.03139 34.0554 3.8393 34.0554 4.68172V41.9849Z" fill="#DF9494"/>
<path d="M14.1545 11.2905H22.0126C22.2122 11.2905 22.4037 11.2112 22.5448 11.0701C22.686 10.9289 22.7653 10.7375 22.7653 10.5378C22.7653 10.3382 22.686 10.1468 22.5448 10.0056C22.4037 9.86446 22.2122 9.78516 22.0126 9.78516H14.1545C13.9549 9.78516 13.7635 9.86446 13.6223 10.0056C13.4812 10.1468 13.4019 10.3382 13.4019 10.5378C13.4019 10.7375 13.4812 10.9289 13.6223 11.0701C13.7635 11.2112 13.9549 11.2905 14.1545 11.2905Z" fill="#DF9494"/>
<path d="M28.8846 13.7441H7.28247C7.08285 13.7441 6.8914 13.8234 6.75024 13.9646C6.60909 14.1058 6.52979 14.2972 6.52979 14.4968C6.52979 14.6965 6.60909 14.8879 6.75024 15.0291C6.8914 15.1702 7.08285 15.2495 7.28247 15.2495H28.8846C29.0842 15.2495 29.2757 15.1702 29.4169 15.0291C29.558 14.8879 29.6373 14.6965 29.6373 14.4968C29.6373 14.2972 29.558 14.1058 29.4169 13.9646C29.2757 13.8234 29.0842 13.7441 28.8846 13.7441Z" fill="#DF9494"/>
<path d="M28.8846 17.6733H7.28247C7.08285 17.6733 6.8914 17.7526 6.75024 17.8938C6.60909 18.035 6.52979 18.2264 6.52979 18.426C6.52979 18.6257 6.60909 18.8171 6.75024 18.9583C6.8914 19.0994 7.08285 19.1787 7.28247 19.1787H28.8846C29.0842 19.1787 29.2757 19.0994 29.4169 18.9583C29.558 18.8171 29.6373 18.6257 29.6373 18.426C29.6373 18.2264 29.558 18.035 29.4169 17.8938C29.2757 17.7526 29.0842 17.6733 28.8846 17.6733Z" fill="#DF9494"/>
</svg>
