<svg width="44" height="49" viewBox="0 0 44 49" fill="none" xmlns="http://www.w3.org/2000/svg">
<path d="M31.9128 32.6555H11.1109C10.9322 32.6555 10.7594 32.7199 10.6243 32.837C10.4892 32.9541 10.4008 33.116 10.3755 33.2929L9.63253 38.4934C9.61741 38.5988 9.62512 38.7063 9.65515 38.8084C9.68518 38.9106 9.73682 39.0051 9.80657 39.0856C9.87632 39.166 9.96255 39.2305 10.0594 39.2748C10.1563 39.319 10.2615 39.3419 10.368 39.3418H32.6558C32.7622 39.3419 32.8675 39.319 32.9644 39.2748C33.0612 39.2305 33.1475 39.166 33.2172 39.0856C33.287 39.0051 33.3386 38.9106 33.3686 38.8084C33.3987 38.7063 33.4064 38.5988 33.3913 38.4934L32.6483 33.2929C32.6229 33.116 32.5346 32.9541 32.3995 32.837C32.2644 32.7199 32.0916 32.6555 31.9128 32.6555ZM11.2246 37.856L11.7551 34.1414H31.2687L31.7992 37.856H11.2246Z" fill="#DF9494"/>
<path d="M34.8733 31.0428C34.8434 30.8704 34.7536 30.7141 34.6197 30.6014C34.4858 30.4887 34.3165 30.4269 34.1415 30.4269H25.2264V27.4552H42.2807C42.4777 27.4552 42.6667 27.3769 42.806 27.2376C42.9453 27.0983 43.0236 26.9093 43.0236 26.7123V0.742925C43.0236 0.545889 42.9453 0.356923 42.806 0.217598C42.6667 0.0782723 42.4777 0 42.2807 0H0.742925C0.545889 0 0.356923 0.0782723 0.217598 0.217598C0.0782726 0.356923 0 0.545889 0 0.742925V26.7123C0 26.9093 0.0782726 27.0983 0.217598 27.2376C0.356923 27.3769 0.545889 27.4552 0.742925 27.4552H17.7972V30.4269H8.88208C8.7071 30.4269 8.53776 30.4887 8.40389 30.6014C8.27002 30.7141 8.18022 30.8704 8.1503 31.0428C5.26146 47.6475 6.14583 42.5746 5.18008 48.13C5.16158 48.2366 5.16658 48.346 5.19473 48.4504C5.22288 48.5548 5.2735 48.6519 5.34305 48.7347C5.4126 48.8176 5.4994 48.8843 5.5974 48.9301C5.69539 48.9759 5.8022 48.9998 5.91038 49H37.1132C37.2215 49 37.3285 48.9763 37.4267 48.9305C37.5248 48.8848 37.6118 48.8182 37.6815 48.7353C37.7513 48.6524 37.802 48.5553 37.8302 48.4508C37.8585 48.3462 37.8635 48.2367 37.845 48.13L34.8733 31.0428ZM1.48585 25.9693V1.48585H41.5377V25.9693H1.48585ZM23.7406 27.4552V30.4269H19.283V27.4552H23.7406ZM15.6197 47.5142C15.7989 46.0779 16.4965 44.7566 17.5815 43.7986C18.6665 42.8406 20.064 42.3119 21.5114 42.3119C22.9588 42.3119 24.3563 42.8406 25.4413 43.7986C26.5263 44.7566 27.224 46.0779 27.4032 47.5142H15.6197ZM28.9031 47.5142C28.7192 45.6815 27.861 43.9825 26.4951 42.7468C25.1292 41.5111 23.3529 40.8269 21.511 40.8269C19.6691 40.8269 17.8929 41.5111 16.527 42.7468C15.1611 43.9825 14.3029 45.6815 14.1189 47.5142H6.79297L9.50688 31.9127H33.5167L36.2299 47.5142H28.9031Z" fill="#DF9494"/>
</svg>
