<svg width="50" height="50" viewBox="0 0 50 50" fill="none" xmlns="http://www.w3.org/2000/svg">
<path d="M14.0474 32.7703C17.4754 37.9993 22.5835 40.8416 28.4453 40.8416H28.5453V40.9416V41.9343V42.0343H28.4453C22.1032 42.0343 16.6417 38.9792 13.0621 33.4633C10.1753 29.0219 8.96935 23.6342 9.54594 18.8397C8.41122 21.7393 7.56293 25.2821 7.98987 29.0178L7.9899 29.0182C8.57032 34.2419 11.648 38.1931 13.4524 40.114L13.4525 40.114C14.7902 41.539 16.2138 42.7007 17.5622 43.5054C18.9127 44.3113 20.179 44.754 21.2044 44.754H21.3044V44.854V45.8467V45.9467H21.2044C19.9973 45.9467 18.5635 45.4597 17.0802 44.5965C15.5952 43.7323 14.053 42.4868 12.6276 40.9587C9.77755 37.9035 7.38547 33.7094 6.85687 29.1575L6.85685 29.1573C6.35782 24.7835 7.50277 20.6485 8.82767 17.5302C10.1446 14.4308 11.6423 12.3287 11.8926 11.984C14.2474 7.38595 16.7063 4.57701 18.4564 3.03226C8.9728 5.85058 2.0927 14.6358 2.0927 25C2.0927 37.6165 12.3837 47.9068 24.9991 47.7905L25 47.7905L25.0007 47.7905H25.0014H25.0021H25.0027H25.0034H25.0041H25.0048H25.0055H25.0062H25.0069H25.0076H25.0083H25.009H25.0097H25.0104H25.0111H25.0118H25.0125H25.0132H25.0139H25.0147H25.0154H25.0161H25.0168H25.0175H25.0182H25.0189H25.0197H25.0204H25.0211H25.0218H25.0226H25.0233H25.024H25.0247H25.0255H25.0262H25.0269H25.0277H25.0284H25.0291H25.0299H25.0306H25.0313H25.0321H25.0328H25.0335H25.0343H25.035H25.0358H25.0365H25.0373H25.038H25.0388H25.0395H25.0403H25.041H25.0418H25.0425H25.0433H25.044H25.0448H25.0455H25.0463H25.0471H25.0478H25.0486H25.0493H25.0501H25.0509H25.0516H25.0524H25.0532H25.0539H25.0547H25.0555H25.0563H25.057H25.0578H25.0586H25.0594H25.0601H25.0609H25.0617H25.0625H25.0632H25.064H25.0648H25.0656H25.0664H25.0672H25.0679H25.0687H25.0695H25.0703H25.0711H25.0719H25.0727H25.0735H25.0742H25.075H25.0758H25.0766H25.0774H25.0782H25.079H25.0798H25.0806H25.0814H25.0822H25.083H25.0838H25.0846H25.0854H25.0862H25.087H25.0878H25.0886H25.0894H25.0902H25.091H25.0919H25.0927H25.0935H25.0943H25.0951H25.0959H25.0967H25.0975H25.0983H25.0992H25.1H25.1008H25.1016H25.1024H25.1032H25.1041H25.1049H25.1057H25.1065H25.1073H25.1082H25.109H25.1098H25.1106H25.1114H25.1123H25.1131H25.1139H25.1147H25.1156H25.1164H25.1172H25.1181H25.1189H25.1197H25.1205H25.1214H25.1222H25.123H25.1239H25.1247H25.1255H25.1264H25.1272H25.128H25.1289H25.1297H25.1305H25.1314H25.1322H25.133H25.1339H25.1347H25.1356H25.1364H25.1372H25.1381H25.1389H25.1398H25.1406H25.1414H25.1423H25.1431H25.144H25.1448H25.1456H25.1465H25.1473H25.1482H25.149H25.1499H25.1507H25.1516H25.1524H25.1532H25.1541H25.1549H25.1558H25.1566H25.1575H25.1583H25.1592H25.16H25.1609H25.1617H25.1626H25.1634H25.1643H25.1651H25.166H25.1668H25.1677H25.1685H25.1694H25.1702H25.1711H25.1719H25.1728H25.1736H25.1745H25.1753H25.1762H25.177H25.1779H25.1787H25.1796H25.1804H25.1813H25.1822H25.183H25.1839H25.1847H25.1856H25.1864H25.1873H25.1881H25.189H25.1898H25.1907H25.1916H25.1924H25.1933H25.1941H25.195H25.1958H25.1967H25.1975H25.1984H25.1992H25.2001H25.201H25.2018H25.2027H25.2035H25.2044H25.2052H25.2061H25.2069H25.2078H25.2087H25.2095H25.2104H25.2112H25.2121H25.2129H25.2138H25.2146H25.2155H25.2164H25.2172H25.2181H25.2189H25.2198H25.2206H25.2215H25.2223H25.2232H25.224H25.2249H25.2258H25.2266H25.2275H25.2283H25.2292H25.23H25.2309H25.2317H25.2326H25.2334H25.2343H25.2351H25.236H25.2368H25.2377H25.2385H25.2394H25.2402H25.2411H25.2419H25.2428H25.2436H25.2445H25.2453H25.2462H25.247H25.2479H25.2487H25.2496H25.2504H25.2513H25.2521H25.253H25.2538H25.2547H25.2555H25.2564H25.2572H25.2581H25.2589H25.2597H25.2606H25.2614H25.2623H25.2631H25.264H25.2648H25.2656H25.2665H25.2673H25.2682H25.269H25.2698H25.2707H25.2715H25.2724H25.2732H25.274H25.2749H25.2757H25.2766H25.2774H25.2782H25.2791H25.2799H25.2807H25.2816H25.2824H25.2832H25.2841H25.2849H25.2857H25.2866H25.2874H25.2882H25.289H25.2899H25.2907H25.2915H25.2924H25.2932H25.294H25.2948H25.2957H25.2965H25.2973H25.2981H25.299H25.2998H25.3006H25.3014H25.3022H25.3031H25.3039H25.3047H25.3055H25.3063H25.3072H25.308H25.3088H25.3096H25.3104H25.3112H25.312H25.3129H25.3137H25.3145H25.3153H25.3161H25.3169H25.3177H25.3185H25.3193H25.3201H25.3209H25.3217H25.3226H25.3234H25.3242H25.325H25.3258H25.3266H25.3274H25.3282H25.329H25.3298H25.3305H25.3313H25.3321H25.3329H25.3337H25.3345H25.3353H25.3361H25.3369H25.3377H25.3385H25.3393H25.34H25.3408H25.3416H25.3424H25.3432H25.344H25.3447H25.3455H25.3463H25.3471H25.3479H25.3486H25.3494H25.3502H25.351H25.3517H25.3525H25.3533H25.354H25.3548H25.3556H25.3564H25.3571H25.3579H25.3586H25.3594H25.3602H25.3609H25.3617H25.3625H25.3632H25.364H25.3647H25.3655H25.3662H25.367H25.3677H25.3685H25.3692H25.37H25.3707H25.3715H25.3722H25.373H25.3737H25.3745H25.3752H25.376H25.3767H25.3774H25.3782H25.3783C26.1326 47.2823 29.6299 44.6904 29.6299 40.3577C29.6299 37.0392 28.999 35.6317 28.6019 35.07C26.2405 36.9538 24.434 37.6547 23.073 37.6547C21.9936 37.6547 21.1512 37.2342 20.5497 36.6328C19.7964 35.8794 19.7085 35.014 19.7546 34.4149L19.0728 34.2051L19.0387 34.1946L19.019 34.165L18.6686 33.6394L18.649 33.61L18.6522 33.5749L18.705 32.9943L17.9987 32.5596L17.965 32.5389L17.9546 32.5008L17.7794 31.8584L17.7699 31.8233L14.0474 32.7703ZM14.0474 32.7703C10.4414 27.1868 9.5166 19.9817 11.8359 14.7632L11.8362 14.7625C13.8829 10.0608 16.1913 7.0415 17.9633 5.10497C17.799 5.78191 17.7175 6.55205 17.7175 7.48175C17.7175 9.33871 18.0613 11.0818 18.8606 12.9345C17.9417 13.5635 16.0825 15.1715 16.0825 18.5182C16.0825 20.678 16.604 22.3168 17.0115 23.5975L17.0215 23.6289L17.0215 23.6289L17.0224 23.6316C17.4326 24.8034 17.7135 25.7126 17.5441 26.6166L17.5439 26.6166L17.5431 26.6226C17.4288 27.537 17.102 28.0555 16.806 28.3445C16.6574 28.4897 16.5149 28.5786 16.4078 28.6309C16.3541 28.6571 16.3096 28.674 16.2778 28.6842C16.2619 28.6893 16.2497 28.6925 16.2415 28.6944C16.2388 28.695 16.2369 28.6954 16.2356 28.6956H16.1409V28.7956V29.7299V29.8146L16.2244 29.8286C16.3942 29.8569 16.7079 29.9281 17.0205 30.0561C17.3363 30.1852 17.6345 30.3655 17.7927 30.6029C17.947 30.8343 17.9508 31.1244 17.9087 31.37C17.888 31.4911 17.8567 31.597 17.8306 31.6727C17.8176 31.7104 17.806 31.7404 17.7977 31.7607C17.7936 31.7708 17.7903 31.7785 17.7881 31.7835L17.7857 31.789L17.7852 31.7901L17.7851 31.7902L17.7851 31.7903L17.7851 31.7903L14.0474 32.7703ZM25 0.9C23.7492 0.9 22.5543 1.0102 21.3628 1.17684V1.09483L21.2312 1.13871L20.888 1.25308C9.57445 3.19127 0.9 13.0991 0.9 25C0.9 37.8821 11.0741 48.4837 23.8321 49.0974V49.1H23.8905H24.4161H24.4171H24.4181H24.4191H24.4202H24.4212H24.4222H24.4232H24.4243H24.4253H24.4263H24.4274H24.4284H24.4294H24.4304H24.4315H24.4325H24.4335H24.4345H24.4356H24.4366H24.4376H24.4386H24.4397H24.4407H24.4417H24.4428H24.4438H24.4448H24.4458H24.4469H24.4479H24.4489H24.4499H24.451H24.452H24.453H24.4541H24.4551H24.4561H24.4571H24.4582H24.4592H24.4602H24.4613H24.4623H24.4633H24.4643H24.4654H24.4664H24.4674H24.4685H24.4695H24.4705H24.4716H24.4726H24.4736H24.4746H24.4757H24.4767H24.4777H24.4788H24.4798H24.4808H24.4819H24.4829H24.4839H24.485H24.486H24.487H24.4881H24.4891H24.4901H24.4912H24.4922H24.4932H24.4943H24.4953H24.4963H24.4974H24.4984H24.4994H24.5005H24.5015H24.5025H24.5036H24.5046H24.5056H24.5067H24.5077H24.5088H24.5098H24.5108H24.5119H24.5129H24.5139H24.515H24.516H24.5171H24.5181H24.5191H24.5202H24.5212H24.5223H24.5233H24.5243H24.5254H24.5264H24.5275H24.5285H24.5295H24.5306H24.5316H24.5327H24.5337H24.5348H24.5358H24.5369H24.5379H24.5389H24.54H24.541H24.5421H24.5431H24.5442H24.5452H24.5463H24.5473H24.5484H24.5494H24.5505H24.5515H24.5526H24.5536H24.5547H24.5557H24.5568H24.5578H24.5589H24.5599H24.561H24.562H24.5631H24.5641H24.5652H24.5662H24.5673H24.5683H24.5694H24.5704H24.5715H24.5726H24.5736H24.5747H24.5757H24.5768H24.5778H24.5789H24.58H24.581H24.5821H24.5831H24.5842H24.5853H24.5863H24.5874H24.5884H24.5895H24.5906H24.5916H24.5927H24.5938H24.5948H24.5959H24.597H24.598H24.5991H24.6002H24.6012H24.6023H24.6034H24.6044H24.6055H24.6066H24.6076H24.6087H24.6098H24.6109H24.6119H24.613H24.6141H24.6151H24.6162H24.6173H24.6184H24.6194H24.6205H24.6216H24.6227H24.6238H24.6248H24.6259H24.627H24.6281H24.6292H24.6302H24.6313H24.6324H24.6335H24.6346H24.6356H24.6367H24.6378H24.6389H24.64H24.6411H24.6422H24.6432H24.6443H24.6454H24.6465H24.6476H24.6487H24.6498H24.6509H24.652H24.6531H24.6542H24.6552H24.6563H24.6574H24.6585H24.6596H24.6607H24.6618H24.6629H24.664H24.6651H24.6662H24.6673H24.6684H24.6695H24.6706H24.6717H24.6728H24.6739H24.675H24.6762H24.6773H24.6784H24.6795H24.6806H24.6817H24.6828H24.6839H24.685H24.6861H24.6872H24.6884H24.6895H24.6906H24.6917H24.6928H24.6939H24.695H24.6962H24.6973H24.6984H24.6995H24.7006H24.7018H24.7029H24.704H24.7051H24.7063H24.7074H24.7085H24.7096H24.7108H24.7119H24.713H24.7141H24.7153H24.7164H24.7175H24.7187H24.7198H24.7209H24.7221H24.7232H24.7243H24.7255H24.7266H24.7278H24.7289H24.73H24.7312H24.7323H24.7335H24.7346H24.7357H24.7369H24.738H24.7392H24.7403H24.7415H24.7426H24.7438H24.7449H24.7461H24.7472H24.7484H24.7495H24.7507H24.7518H24.753H24.7541H24.7553H24.7565H24.7576H24.7588H24.7599H24.7611H24.7623H24.7634H24.7646H24.7658H24.7669H24.7681H24.7693H24.7704H24.7716H24.7728H24.7739H24.7751H24.7763H24.7775H24.7786H24.7798H24.781H24.7822H24.7833H24.7845H24.7857H24.7869H24.7881H24.7892H24.7904H24.7916H24.7928H24.794H24.7952H24.7963H24.7975H24.7987H24.7999H24.8011H24.8023H24.8035H24.8047H24.8059H24.8071H24.8083H24.8095H24.8107H24.8119H24.8131H24.8143H24.8155H24.8167H24.8179H24.8191H24.8203H24.8215H24.8227H24.8239H24.8251H24.8263H24.8276H24.8288H24.83H24.8312H24.8324H24.8336H24.8349H24.8361H24.8373H24.8385H24.8397H24.841H24.8422H24.8434H24.8446H24.8459H24.8471H24.8483H24.8496H24.8508H24.852H24.8533H24.8545H24.8557H24.857H24.8582H24.8594H24.8607H24.8619H24.8632H24.8644H24.8656H24.8669H24.8681H24.8694H24.8706H24.8719H24.8731H24.8744H24.8756H24.8769H24.8781H24.8794H24.8807H24.8819H24.8832H24.8844H24.8857H24.887H24.8882H24.8895H24.8908H24.892H24.8933H24.8946H24.8958H24.8971H24.8984H24.8997H24.9009H24.9022H24.9035H24.9048H24.906H24.9073H24.9086H24.9099H24.9112H24.9125H24.9137H24.915H24.9163H24.9176H24.9189H24.9202H24.9215H24.9228H24.9241H24.9254H24.9267H24.928H24.9293H24.9306H24.9319H24.9332H24.9345H24.9358H24.9371H24.9384H24.9397H24.941H24.9424H24.9437H24.945H24.9463H24.9476H24.9489H24.9503H24.9516H24.9529H24.9542H24.9555H24.9569H24.9582H24.9595H24.9609H24.9622H24.9635H24.9649H24.9662H24.9675H24.9689H24.9702H24.9715H24.9729H24.9742H24.9756H24.9769H24.9783H24.9796H24.981H24.9823H24.9837H24.985H24.9864H24.9877H24.9891H24.9905H24.9918H24.9932H24.9945H24.9959H24.9973H24.9986H25H25.001H25.0021H25.0031H25.0041H25.0051H25.0062H25.0072H25.0082H25.0092H25.0103H25.0113H25.0123H25.0133H25.0144H25.0154H25.0164H25.0175H25.0185H25.0195H25.0205H25.0216H25.0226H25.0236H25.0246H25.0257H25.0267H25.0277H25.0287H25.0298H25.0308H25.0318H25.0329H25.0339H25.0349H25.0359H25.037H25.038H25.039H25.0401H25.0411H25.0421H25.0431H25.0442H25.0452H25.0462H25.0473H25.0483H25.0493H25.0503H25.0514H25.0524H25.0534H25.0545H25.0555H25.0565H25.0576H25.0586H25.0596H25.0606H25.0617H25.0627H25.0637H25.0648H25.0658H25.0668H25.0679H25.0689H25.0699H25.071H25.072H25.073H25.0741H25.0751H25.0761H25.0772H25.0782H25.0792H25.0803H25.0813H25.0823H25.0834H25.0844H25.0854H25.0865H25.0875H25.0886H25.0896H25.0906H25.0917H25.0927H25.0937H25.0948H25.0958H25.0968H25.0979H25.0989H25.1H25.101H25.102H25.1031H25.1041H25.1052H25.1062H25.1072H25.1083H25.1093H25.1104H25.1114H25.1124H25.1135H25.1145H25.1156H25.1166H25.1177H25.1187H25.1197H25.1208H25.1218H25.1229H25.1239H25.125H25.126H25.1271H25.1281H25.1292H25.1302H25.1313H25.1323H25.1333H25.1344H25.1354H25.1365H25.1375H25.1386H25.1396H25.1407H25.1417H25.1428H25.1438H25.1449H25.146H25.147H25.1481H25.1491H25.1502H25.1512H25.1523H25.1533H25.1544H25.1554H25.1565H25.1575H25.1586H25.1597H25.1607H25.1618H25.1628H25.1639H25.165H25.166H25.1671H25.1681H25.1692H25.1703H25.1713H25.1724H25.1734H25.1745H25.1756H25.1766H25.1777H25.1788H25.1798H25.1809H25.182H25.183H25.1841H25.1852H25.1862H25.1873H25.1884H25.1894H25.1905H25.1916H25.1926H25.1937H25.1948H25.1959H25.1969H25.198H25.1991H25.2002H25.2012H25.2023H25.2034H25.2045H25.2055H25.2066H25.2077H25.2088H25.2099H25.2109H25.212H25.2131H25.2142H25.2153H25.2163H25.2174H25.2185H25.2196H25.2207H25.2218H25.2228H25.2239H25.225H25.2261H25.2272H25.2283H25.2294H25.2305H25.2315H25.2326H25.2337H25.2348H25.2359H25.237H25.2381H25.2392H25.2403H25.2414H25.2425H25.2436H25.2447H25.2458H25.2469H25.248H25.2491H25.2502H25.2513H25.2524H25.2535H25.2546H25.2557H25.2568H25.2579H25.259H25.2601H25.2612H25.2623H25.2634H25.2645H25.2656H25.2667H25.2679H25.269H25.2701H25.2712H25.2723H25.2734H25.2745H25.2756H25.2768H25.2779H25.279H25.2801H25.2812H25.2823H25.2835H25.2846H25.2857H25.2868H25.288H25.2891H25.2902H25.2913H25.2924H25.2936H25.2947H25.2958H25.297H25.2981H25.2992H25.3003H25.3015H25.3026H25.3037H25.3049H25.306H25.3071H25.3083H25.3094H25.3106H25.3117H25.3128H25.314H25.3151H25.3163H25.3174H25.3185H25.3197H25.3208H25.322H25.3231H25.3243H25.3254H25.3266H25.3277H25.3289H25.33H25.3312H25.3323H25.3335H25.3346H25.3358H25.3369H25.3381H25.3392H25.3404H25.3416H25.3427H25.3439H25.345H25.3462H25.3474H25.3485H25.3497H25.3509H25.352H25.3532H25.3544H25.3555H25.3567H25.3579H25.359H25.3602H25.3614H25.3626H25.3637H25.3649H25.3661H25.3673H25.3685H25.3696H25.3708H25.372H25.3732H25.3744H25.3755H25.3767H25.3779H25.3791H25.3803H25.3815H25.3827H25.3839H25.385H25.3862H25.3874H25.3886H25.3898H25.391H25.3922H25.3934H25.3946H25.3958H25.397H25.3982H25.3994H25.4006H25.4018H25.403H25.4042H25.4054H25.4067H25.4079H25.4091H25.4103H25.4115H25.4127H25.4139H25.4151H25.4164H25.4176H25.4188H25.42H25.4212H25.4225H25.4237H25.4249H25.4261H25.4274H25.4286H25.4298H25.431H25.4323H25.4335H25.4347H25.436H25.4372H25.4384H25.4397H25.4409H25.4421H25.4434H25.4446H25.4459H25.4471H25.4483H25.4496H25.4508H25.4521H25.4533H25.4546H25.4558H25.4571H25.4583H25.4596H25.4608H25.4621H25.4633H25.4646H25.4659H25.4671H25.4684H25.4696H25.4709H25.4722H25.4734H25.4747H25.476H25.4772H25.4785H25.4798H25.481H25.4823H25.4836H25.4849H25.4861H25.4874H25.4887H25.49H25.4913H25.4925H25.4938H25.4951H25.4964H25.4977H25.499H25.5003H25.5016H25.5028H25.5041H25.5054H25.5067H25.508H25.5093H25.5106H25.5119H25.5132H25.5145H25.5158H25.5171H25.5184H25.5197H25.521H25.5224H25.5237H25.525H25.5263H25.5276H25.5289H25.5302H25.5316H25.5329H25.5342H25.5355H25.5368H25.5382H25.5395H25.5408H25.5421H25.5435H25.5448H25.5461H25.5475H25.5488H25.5501H25.5515H25.5528H25.5542H25.5555H25.5568H25.5582H25.5595H25.5609H25.5622H25.5636H25.5649H25.5663H25.5676H25.569H25.5703H25.5717H25.573H25.5744H25.5758H25.5771H25.5785H25.5798H25.5812H25.5826H25.5839H25.5925C25.8745 49.1 26.1725 49.1 26.4163 49.0409C39.0781 48.3326 49.1 37.7799 49.1 25C49.1 23.008 48.8658 21.0156 48.3971 19.1395C48.3087 18.6548 48.1541 18.168 48.0097 17.7128C47.9608 17.5589 47.9131 17.4086 47.8695 17.2632L47.8696 17.2632L47.8682 17.2593C44.5848 7.76088 35.6138 0.9 25 0.9ZM24.9416 2.1511L24.9423 2.15109C32.8897 2.09473 39.7982 6.02686 43.9211 12.0942C43.4564 11.723 42.9398 11.3685 42.3925 11.0736C39.7502 9.48871 36.4079 8.43458 32.3688 8.0247C27.2532 7.40597 23.5493 3.89601 22.1086 2.30376C23.0337 2.20199 23.9621 2.1511 24.9416 2.1511ZM29.9819 32.5272L29.9129 32.4444L29.8355 32.5195C27.8831 34.4136 26.1572 35.6438 24.723 36.1987C23.2911 36.7528 22.1708 36.6279 21.3919 35.849C21.0648 35.5219 20.9679 35.1259 20.9539 34.7987C20.947 34.6351 20.9609 34.4902 20.9767 34.3822C20.9846 34.3283 20.9929 34.2836 20.9994 34.2502L21.0076 34.2076C21.009 34.2003 21.0124 34.1828 21.0124 34.1679V34.1424L21.0002 34.12L20.6498 33.4777L20.6279 33.4374L20.583 33.4278L19.8539 33.2715L19.9023 32.8359L19.9056 32.8065L19.8924 32.7801L19.6588 32.3129L19.6464 32.2882L19.623 32.2733L19.041 31.9029C19.1527 31.4257 19.2479 30.6736 18.8362 30.0266L18.8363 30.0265L18.8332 30.0222C18.56 29.6398 18.1419 29.3084 17.708 29.1131C18.1521 28.6771 18.5692 27.9785 18.7336 26.8858C18.9585 25.7569 18.5983 24.6826 18.2167 23.5447C18.1932 23.4748 18.1697 23.4046 18.1462 23.3341C18.1461 23.3338 18.146 23.3336 18.146 23.3333L18.142 23.321C17.7347 22.0407 17.2752 20.5966 17.2752 18.5766C17.2752 15.9279 18.6499 14.6091 19.417 14.0528C21.0135 17.0795 23.9337 20.5124 28.9002 25.4212C31.2812 27.8022 32.9647 30.8215 33.6613 34.1301C34.3004 37.2096 34.1246 40.2248 33.0829 42.7132L33.0826 42.714C31.9759 45.4254 30.0275 47.1751 27.4914 47.7248C28.9334 46.3693 30.7642 43.92 30.7642 40.4745C30.7642 36.8479 29.9973 35.1774 29.4563 34.4169C29.8384 34.084 30.1739 33.7485 30.5584 33.364L30.5598 33.3627L30.6243 33.2981L30.5659 33.228L29.9819 32.5272ZM31.4518 47.0195C32.581 46.042 33.5112 44.7397 34.2007 43.2015L34.2008 43.2015L34.2019 43.1988C35.3201 40.4915 35.5541 37.2003 34.791 33.9125C34.0278 30.3906 32.2668 27.1618 29.6837 24.6371C21.331 16.1675 18.9102 12.3992 18.9102 7.54015C18.9102 5.05928 19.5991 3.74281 20.219 3.06172C20.2948 3.01058 20.3601 2.95961 20.4167 2.91539C20.425 2.90893 20.433 2.90261 20.441 2.89645C20.4561 2.88468 20.4704 2.87364 20.4841 2.86332C20.7887 4.91162 22.5317 9.46238 31.1921 15.331L31.1923 15.3311C33.8692 17.1351 37.1649 20.1133 38.8482 24.5175C40.53 28.9177 40.6082 34.7569 36.823 42.2982L36.7769 42.3902L36.8701 42.4337L37.746 42.8424L37.8346 42.8838L37.878 42.7961C40.3953 37.703 41.4525 32.6032 40.9241 28.1415C40.2778 22.5605 37.2218 17.9232 31.888 14.3477C24.9548 9.65276 22.6877 5.88744 21.955 3.77381C23.8141 5.67544 27.3901 8.60392 32.2869 9.21602L32.2875 9.2161C41.6605 10.3222 45.3597 14.1579 46.7452 17.7928C47.5005 20.0592 47.9073 22.5587 47.9073 25.0584C47.9073 35.4141 40.9818 44.194 31.4518 47.0195ZM24.0489 22.3723V22.2723H23.9489H22.9562H22.8562V22.372V22.372V22.3721V22.3722V22.3723L22.8562 22.3727L22.8561 22.3774C22.8559 22.3818 22.8556 22.3889 22.8549 22.3983C22.8535 22.4172 22.8506 22.4454 22.8448 22.481C22.833 22.5522 22.8094 22.652 22.762 22.7639C22.6676 22.9862 22.4784 23.2585 22.094 23.4507C21.6522 23.6716 21.1791 23.6731 20.8108 23.6165C20.6274 23.5883 20.472 23.5459 20.3628 23.5107C20.3083 23.4931 20.2654 23.4773 20.2365 23.4661C20.222 23.4605 20.211 23.456 20.2038 23.453L20.1959 23.4496L20.1942 23.4489L20.1939 23.4488L20.1939 23.4487L20.1938 23.4487L20.1042 23.4089L20.0627 23.4979L19.6539 24.3738L19.5875 24.5161H19.7361C19.7409 24.5174 19.7479 24.5197 19.7579 24.5231C19.773 24.5284 19.7913 24.535 19.8137 24.5432C19.8243 24.547 19.8358 24.5512 19.8483 24.5557C19.925 24.5834 20.0314 24.6208 20.1623 24.6582C20.424 24.733 20.7838 24.808 21.2044 24.808C21.6226 24.808 22.1066 24.7483 22.5922 24.5055C24.0464 23.7784 24.0489 22.4413 24.0489 22.3723Z" fill="#DF9494" stroke="#DF9494" stroke-width="0.2"/>
</svg>
