<svg width="44" height="51" viewBox="0 0 44 51" fill="none" xmlns="http://www.w3.org/2000/svg">
<path d="M13.9034 14.1216C13.797 14.1216 13.7314 14.1193 13.7088 14.1182C13.3489 14.1012 13.0717 13.7956 13.0886 13.4369C13.1056 13.0782 13.4077 12.8009 13.7687 12.8168C13.8253 12.8191 19.5638 12.9978 24.2227 7.50606C24.414 7.28086 24.732 7.21296 24.9979 7.33857C25.265 7.46418 25.4132 7.75388 25.3611 8.04471C25.3589 8.05942 25.0816 9.74781 26.1397 11.0797C26.9669 12.1197 28.3984 12.7048 30.3946 12.8179C30.7545 12.8383 31.0283 13.1461 31.008 13.506C30.9876 13.8658 30.6821 14.1397 30.3199 14.1193C27.9265 13.9835 26.1725 13.2287 25.1054 11.8741C24.4988 11.1035 24.2193 10.2661 24.1005 9.55204C19.7188 13.8749 14.9354 14.1216 13.9034 14.1216Z" fill="#DF9494"/>
<path d="M11.5496 38.1325C11.1886 38.1325 10.8955 37.8394 10.8955 37.4784V30.7249C10.8955 30.3639 11.1886 30.0708 11.5496 30.0708C11.9106 30.0708 12.2037 30.3639 12.2037 30.7249V37.4784C12.2048 37.8394 11.9117 38.1325 11.5496 38.1325Z" fill="#DF9494"/>
<path d="M11.5499 43.0323C9.8377 43.0323 8.4458 41.6393 8.4458 39.9283C8.4458 38.2173 9.83883 36.8242 11.5499 36.8242C13.262 36.8242 14.6539 38.2161 14.6539 39.9283C14.6539 41.6404 13.262 43.0323 11.5499 43.0323ZM11.5499 38.1324C10.5597 38.1324 9.75396 38.9381 9.75396 39.9283C9.75396 40.9185 10.5597 41.7242 11.5499 41.7242C12.54 41.7242 13.3458 40.9185 13.3458 39.9283C13.3458 38.9381 12.54 38.1324 11.5499 38.1324Z" fill="#DF9494"/>
<path d="M34.9972 43.0325H33.7728C33.4118 43.0325 33.1187 42.7394 33.1187 42.3784C33.1187 42.0174 33.4118 41.7243 33.7728 41.7243H34.3431V39.9284C34.3431 38.601 33.2624 37.5203 31.935 37.5203C30.6076 37.5203 29.5269 38.601 29.5269 39.9284V41.7243H30.0973C30.4582 41.7243 30.7513 42.0174 30.7513 42.3784C30.7513 42.7394 30.4582 43.0325 30.0973 43.0325H28.8728C28.5118 43.0325 28.2188 42.7394 28.2188 42.3784V39.9284C28.2188 37.879 29.8856 36.2122 31.935 36.2122C33.9844 36.2122 35.6513 37.879 35.6513 39.9284V42.3784C35.6524 42.7394 35.3593 43.0325 34.9972 43.0325Z" fill="#DF9494"/>
<path d="M31.9348 37.5203C31.5739 37.5203 31.2808 37.2272 31.2808 36.8662V30.5359C31.2808 30.1749 31.5739 29.8818 31.9348 29.8818C32.2958 29.8818 32.5889 30.1749 32.5889 30.5359V36.8662C32.5901 37.2272 32.297 37.5203 31.9348 37.5203Z" fill="#DF9494"/>
<path d="M34.0737 31.8848C33.7139 31.8848 33.4219 31.5928 33.4219 31.2329V12.9866C33.4219 6.71508 28.3205 1.6137 22.0491 1.6137C19.0242 1.6137 16.1725 2.80077 14.0179 4.95539C11.8633 7.11002 10.6762 9.96285 10.6762 12.9866V31.2329C10.6762 31.5928 10.3842 31.8848 10.0244 31.8848C9.66452 31.8848 9.37256 31.5928 9.37256 31.2329V12.9866C9.37256 5.99649 15.059 0.310059 22.0491 0.310059C29.0391 0.310059 34.7256 5.99649 34.7256 12.9866V31.2329C34.7256 31.5939 34.4336 31.8848 34.0737 31.8848Z" fill="#DF9494"/>
<path d="M42.0155 50.5001H2.08259C1.15126 50.5001 0.393066 49.7407 0.393066 48.8083V39.1521C0.393066 36.0107 2.37115 33.1658 5.31452 32.0738C5.32357 32.0704 5.33149 32.0681 5.34055 32.0647L16.4 28.4854V25.2976C16.4 24.9377 16.6919 24.6458 17.0518 24.6458C17.4116 24.6458 17.7036 24.9377 17.7036 25.2976V28.9448C17.7047 28.9923 17.7002 29.0387 17.6911 29.0851C17.673 29.1779 17.6357 29.2639 17.5825 29.3375C17.5259 29.4167 17.4512 29.4846 17.3618 29.5333C17.3222 29.5548 17.2815 29.5717 17.2374 29.5853L5.75472 33.2993C3.32625 34.2069 1.69557 36.5561 1.69557 39.151V48.8072C1.69557 49.021 1.86871 49.1953 2.08146 49.1953H42.0155C42.2282 49.1953 42.4014 49.021 42.4014 48.8072V39.151C42.4014 36.5561 40.7707 34.2058 38.3422 33.2993L26.8596 29.5842C26.8155 29.5706 26.7725 29.5536 26.7329 29.531C26.6469 29.4835 26.5744 29.419 26.519 29.342C26.4635 29.2662 26.4251 29.1779 26.4058 29.0817C26.3968 29.0365 26.3934 28.9912 26.3945 28.9448V25.3225C26.3945 24.9626 26.6865 24.6706 27.0463 24.6706C27.4062 24.6706 27.6981 24.9626 27.6981 25.3225V28.4854L38.7575 32.0636C38.7666 32.067 38.7745 32.0692 38.7836 32.0726C41.7269 33.1647 43.705 36.0096 43.705 39.151V48.8072C43.7062 49.7408 42.948 50.5001 42.0155 50.5001Z" fill="#DF9494"/>
<path d="M22.0481 27.6196C17.1595 27.6196 13.1399 23.643 13.0879 18.7555V13.4663C13.0879 13.1064 13.3799 12.8145 13.7397 12.8145C14.0996 12.8145 14.3915 13.1064 14.3915 13.4663V18.7487C14.4357 22.9188 17.8702 26.3159 22.0481 26.3159C26.2261 26.3159 29.6617 22.9176 29.707 18.7419V13.4674C29.707 13.1075 29.999 12.8156 30.3588 12.8156C30.7187 12.8156 31.0106 13.1075 31.0106 13.4674V18.7498C30.9846 21.1297 30.0408 23.3567 28.3536 25.027C26.664 26.6984 24.4245 27.6196 22.0481 27.6196Z" fill="#DF9494"/>
<path d="M22.049 35.3803C21.8601 35.3803 21.6801 35.2977 21.5568 35.1552L16.5584 29.3861C16.323 29.1145 16.3524 28.7026 16.624 28.4661C16.8956 28.2307 17.3075 28.2601 17.544 28.5317L22.0502 33.7327L26.5563 28.5329C26.7917 28.2613 27.2036 28.2318 27.4763 28.4672C27.7491 28.7026 27.7773 29.1145 27.542 29.3872L22.5436 35.1552C22.418 35.2977 22.238 35.3803 22.049 35.3803Z" fill="#DF9494"/>
<path d="M22.0493 50.5C21.6894 50.5 21.3975 50.208 21.3975 49.8482V34.7285C21.3975 34.3686 21.6894 34.0767 22.0493 34.0767C22.4091 34.0767 22.7011 34.3686 22.7011 34.7285V49.8482C22.7011 50.208 22.4091 50.5 22.0493 50.5Z" fill="#DF9494"/>
</svg>
